<svg xmlns="http://www.w3.org/2000/svg" width="133" height="40" viewBox="0 0 133 40" class="h-10">
<g clip-path="url(#clip0_14_509)">
    <path d="M35.5324 9.64813H33.5361L29.2439 20.0945L24.8189 9.64813H18.8962V10.4804C19.5617 10.4804 19.994 11.2122 20.2271 11.8113L26.1821 26.6162H28.2448L34.1998 11.8113C34.433 11.2122 34.8653 10.4804 35.5307 10.4804V9.64813H35.5324ZM46.3123 9.18181C41.0551 9.18181 37.1969 13.1405 37.1969 18.1645C37.1969 23.1885 41.0568 27.1148 46.3123 27.1148C51.5678 27.1148 55.4277 23.1885 55.4277 18.1645C55.4277 13.1405 51.5678 9.18181 46.3123 9.18181ZM46.3123 26.3166C44.2156 26.3166 42.5188 22.7562 42.5188 18.1645C42.5188 13.5727 44.2156 9.98 46.3123 9.98C48.4091 9.98 50.1059 13.5727 50.1059 18.1645C50.1059 22.7562 48.4091 26.3166 46.3123 26.3166ZM67.3054 9.98C70.3654 9.98 71.5312 13.1404 71.5312 15.6695H73.0953V9.64813C70.3671 9.34859 69.5025 9.18181 67.3071 9.18181C61.3521 9.18181 57.4258 12.7745 57.4258 18.1322C57.4258 23.4898 61.3521 27.0825 67.3071 27.0825C69.5025 27.0825 70.3671 26.9157 73.0953 26.6162V20.5948H71.5312C71.5312 23.1239 70.3671 26.2843 67.3054 26.2843C64.4445 26.2843 62.7477 23.0575 62.7477 18.1339C62.7477 13.2102 64.4445 9.98341 67.3054 9.98341V9.98ZM91.3261 18.0981C91.3261 12.7082 88.9639 9.18181 83.1076 9.18181C80.9122 9.18181 79.6136 9.34859 76.8854 9.64813V15.6695H78.4495C78.4495 13.1404 79.5149 9.98 83.1076 9.98C84.8044 9.98 86.0026 10.7782 86.2357 12.475C87.0016 17.899 75.0899 15.7359 75.0899 22.1895C75.0899 25.7822 77.8845 27.0808 80.5122 27.0808C83.14 27.0808 85.4035 25.384 86.3344 23.8863V26.6145H92.6553V25.7822C91.9899 25.7822 91.3244 25.1168 91.3244 24.4513V18.0964L91.3261 18.0981ZM82.7757 25.0521C81.2117 25.0521 80.3795 23.9544 80.3795 22.1912C80.3795 18.7653 85.7354 17.1348 86.3344 15.0721C86.3685 16.5358 86.3344 17.9994 86.3344 18.0998V21.8593C86.0026 23.357 84.3381 25.0538 82.774 25.0538L82.7757 25.0521ZM111.256 0H104.935V0.832234C105.6 0.832234 106.266 1.49768 106.266 2.16313V11.9117C105.335 10.8139 103.604 9.18351 100.775 9.18351C95.5843 9.18351 94.3215 14.6075 94.3215 18.1339C94.3215 21.6602 95.0874 27.0842 100.775 27.0842C103.17 27.0842 105.2 25.7193 106.266 24.356V26.6179H112.586V25.7856C111.921 25.7856 111.256 25.1202 111.256 24.4548V0ZM103.037 25.0521C99.8425 25.0521 99.6434 19.8953 99.6434 18.1322C99.6434 14.3386 100.409 10.7799 102.372 10.7799C103.536 10.7799 105.2 12.1108 106.264 13.7412V22.7239C105.632 23.9544 104.302 25.0521 103.037 25.0521ZM123.365 9.18181C118.107 9.18181 114.249 13.1405 114.249 18.1645C114.249 23.1885 118.109 27.1148 123.365 27.1148C128.62 27.1148 132.48 23.1885 132.48 18.1645C132.48 13.1405 128.62 9.18181 123.365 9.18181ZM123.365 26.3166C121.268 26.3166 119.571 22.7562 119.571 18.1645C119.571 13.5727 121.268 9.98 123.365 9.98C125.461 9.98 127.158 13.5727 127.158 18.1645C127.158 22.7562 125.461 26.3166 123.365 26.3166Z" fill="#fff"></path>
    <path d="M22.9077 40V30.8114H24.8104V34.5131H29.0363V30.8114H30.9407V40H29.0363V36.232H24.8104V40H22.9077Z" fill="#fff"></path>
    <path d="M39.7651 40V30.8114H46.8281V32.4657H41.6679V34.5658H45.0683V36.1656H41.6679V38.3458H46.8791V40H39.7651Z" fill="#fff"></path>
    <path d="M54.6553 40L58.4352 30.8114H60.6273L64.3681 40H62.3071L61.3744 37.585H57.5808L56.6363 40H54.6536H54.6553ZM58.1731 36.0618H60.7992L59.487 32.675L58.1748 36.0618H58.1731Z" fill="#fff"></path>
    <path d="M72.3005 40V30.8114H74.2033V38.3185H79.2307V40H72.3005Z" fill="#fff"></path>
    <path d="M88.3326 40V32.4912H85.2351V30.8114H93.3209V32.4912H90.2353V40H88.3326Z" fill="#fff"></path>
    <path d="M101.541 40V30.8114H103.445V34.5131H107.671V30.8114H109.574V40H107.671V36.232H103.445V40H101.541Z" fill="#fff"></path>
    <path fill-rule="evenodd" clip-rule="evenodd" d="M11.1475 12.4989C11.9134 17.9229 0 15.7597 0 22.2151C0 25.8095 2.79454 27.1064 5.42399 27.1064C8.05344 27.1064 10.3153 25.4096 11.2479 23.9119V26.6401H17.5705V25.8078C16.9051 25.8078 16.2396 25.1424 16.2396 24.4769V18.122C16.2396 12.7303 13.8774 9.20398 8.0211 9.20398C5.82564 9.20398 4.52708 9.37077 1.79892 9.6703V15.6934H3.36297C3.36297 13.1643 4.42837 10.0039 8.0211 10.0039C9.71791 10.0039 10.9161 10.8021 11.1492 12.4989H11.1475ZM12.0648 16.9017C12.8018 17.6335 12.4818 18.4096 12.0648 19.4188C11.9985 19.5805 11.9287 19.7473 11.8521 19.9464L11.7687 20.166C11.3177 21.3454 10.9178 22.3887 10.2166 23.0933C9.66685 23.6464 8.94354 23.9255 8.22193 23.9272C7.49862 23.9289 6.77531 23.6549 6.22218 23.1052L5.89882 22.7835C5.3457 22.2338 5.06829 21.5122 5.06489 20.7889C5.06318 20.0656 5.33549 19.3423 5.88691 18.7891C6.5881 18.0845 7.62796 17.6795 8.80568 17.22L9.02523 17.1349C9.22265 17.0566 9.39114 16.9868 9.55112 16.9187C10.4821 16.5273 11.2139 16.2193 11.9015 16.7554L11.91 16.7451L12.0665 16.9017H12.0648ZM13.8365 16.946C13.2732 16.5664 12.6163 16.4899 12.1397 16.7009C12.3814 17.0089 12.6997 17.3068 13.0792 17.5621C13.6153 17.9246 14.1837 18.1424 14.6875 18.2088C14.6245 17.7493 14.3233 17.271 13.8382 16.9443L13.8365 16.946Z" fill="#fff"></path>
</g>
<defs>
    <clipPath id="clip0_14_509">
        <rect width="132.482" height="40" fill="#fff"></rect>
    </clipPath>
</defs>
</svg>